<svg width="1058" height="531" viewBox="0 0 1058 531" fill="none" xmlns="http://www.w3.org/2000/svg">
<path d="M956.37 430.581C956.37 461.337 956.37 492.093 956.37 522.849C956.37 529 953.295 529 950.219 529C931.769 529 913.318 529 894.867 529C833.364 529 768.786 529 707.283 529C618.104 529 541.225 467.488 519.699 378.296C516.624 365.994 516.624 350.616 516.624 338.314C516.624 261.424 516.624 184.535 516.624 110.721C516.624 101.494 519.699 98.4186 528.925 101.494C559.676 101.494 590.428 101.494 621.179 101.494C624.254 104.57 621.179 107.645 621.179 110.721C621.179 184.535 621.179 261.424 621.179 335.238C621.179 341.389 621.179 347.541 624.254 353.692C710.358 267.576 796.462 184.535 879.491 101.494C876.416 98.4186 876.416 98.4186 873.341 98.4186C790.312 98.4186 710.358 98.4186 627.329 98.4186C624.254 98.4186 621.179 98.4186 618.104 98.4186C621.179 95.343 618.104 92.2674 618.104 89.1919C618.104 61.5116 618.104 36.907 618.104 9.22674C618.104 3.07558 618.104 0 624.254 0C710.358 0 796.462 0 879.491 0C965.595 0 1042.47 73.8139 1054.77 159.93C1054.77 169.157 1057.85 178.384 1057.85 190.686C1057.85 267.576 1057.85 344.465 1057.85 421.355C1057.85 430.581 1054.77 430.581 1048.62 430.581C1020.95 430.581 990.196 427.506 956.37 430.581C956.37 427.506 956.37 427.506 956.37 424.43C956.37 344.465 956.37 264.5 956.37 187.61C956.37 187.61 956.37 184.535 953.295 184.535C870.266 267.576 787.237 347.541 701.133 430.581C707.283 430.581 710.358 430.581 713.433 430.581C790.312 430.581 867.191 430.581 944.069 430.581C950.219 427.506 953.295 430.581 956.37 430.581Z" fill="white"/>
<path d="M0 98.4187C49.2023 98.4187 95.3295 98.4187 141.457 98.4187C147.607 98.4187 150.682 101.494 153.757 104.57C221.41 178.384 285.988 255.273 353.642 329.087C356.717 332.163 356.717 332.163 362.867 338.314C362.867 332.163 362.867 329.087 362.867 326.012C362.867 252.198 362.867 181.459 362.867 107.645C362.867 98.4187 365.942 98.4187 372.093 98.4187C402.844 98.4187 433.595 98.4187 464.347 98.4187C470.497 98.4187 473.572 98.4187 473.572 104.57C473.572 227.593 473.572 347.541 473.572 470.564C473.572 495.169 458.197 516.698 433.595 525.925C408.994 535.151 384.393 529 365.942 507.471C332.116 470.564 301.364 433.657 267.538 396.75C181.434 301.407 92.2543 202.988 6.15029 104.57C3.07514 104.57 3.07514 101.494 0 98.4187Z" fill="white"/>
</svg>
