<?xml version="1.0" encoding="UTF-8" standalone="no"?>
<svg
   xmlns:dc="http://purl.org/dc/elements/1.1/"
   xmlns:cc="http://creativecommons.org/ns#"
   xmlns:rdf="http://www.w3.org/1999/02/22-rdf-syntax-ns#"
   xmlns:svg="http://www.w3.org/2000/svg"
   xmlns="http://www.w3.org/2000/svg"
   viewBox="0 0 653.33331 569.33331"
   height="569.33331"
   width="653.33331"
   xml:space="preserve"
   id="svg2"
   version="1.1"><metadata
     id="metadata8"><rdf:RDF><cc:Work
         rdf:about=""><dc:format>image/svg+xml</dc:format><dc:type
           rdf:resource="http://purl.org/dc/dcmitype/StillImage" /></cc:Work></rdf:RDF></metadata><defs
     id="defs6"><clipPath
       id="clipPath18"
       clipPathUnits="userSpaceOnUse"><path
         id="path16"
         d="M 0,427 H 490 V 0 H 0 Z" /></clipPath><clipPath
       id="clipPath74"
       clipPathUnits="userSpaceOnUse"><path
         id="path72"
         d="M 0,427 H 490 V 0 H 0 Z" /></clipPath><clipPath
       id="clipPath90"
       clipPathUnits="userSpaceOnUse"><path
         id="path88"
         d="M 0,427 H 490 V 0 H 0 Z" /></clipPath></defs><g
     transform="matrix(1.3333333,0,0,-1.3333333,0,569.33333)"
     id="g10"><g
       id="g12"><g
         clip-path="url(#clipPath18)"
         id="g14"><g
           transform="translate(328.0569,230.9583)"
           id="g20"><path
             id="path22"
             style="fill:#fccc04;fill-opacity:1;fill-rule:nonzero;stroke:none"
             d="m 0,0 c 0,-46.001 -38.529,-83.292 -86.057,-83.292 -47.528,0 -86.057,37.291 -86.057,83.292 0,46.001 38.529,83.292 86.057,83.292 C -38.529,83.292 0,46.001 0,0" /></g><g
           transform="translate(312.5,331.6667)"
           id="g24"><path
             id="path26"
             style="fill:#fccc04;fill-opacity:1;fill-rule:nonzero;stroke:none"
             d="m 0,0 c 15.838,-14.718 36,1.833 45.833,12.333 9.834,10.5 19,23 2,44.167 C 41.25,64.333 30.25,68.083 23.75,68.083 17.25,68.083 13.5,62.958 2.25,37.333 -9,11.708 -8.25,7.667 0,0" /></g><g
           transform="translate(237.625,397.625)"
           id="g28"><path
             id="path30"
             style="fill:#fccc04;fill-opacity:1;fill-rule:nonzero;stroke:none"
             d="m 0,0 c 13.672,-1.161 15.958,-5.292 17.875,-10.542 1.917,-5.25 -0.417,-12.333 -3.5,-22.833 -3.083,-10.5 -5,-17.833 -18.25,-18.667 -13.25,-0.833 -15.583,5.417 -16.333,18.75 -0.75,13.334 -0.667,24.75 2.25,28.584 2.916,3.833 2.75,6 17.958,4.708" /></g><g
           transform="translate(109.8333,359.4167)"
           id="g32"><path
             id="path34"
             style="fill:#fccc04;fill-opacity:1;fill-rule:nonzero;stroke:none"
             d="M 0,0 C 7.366,10.183 16.75,13.417 22.333,8.167 27.917,2.917 43,-13 47.083,-22.5 51.167,-32 49.24,-35.667 46.11,-37.729 c -3.131,-2.063 -5.756,-4.125 -7.631,-5.438 -1.875,-1.312 -10.979,0.5 -27.562,10.25 -16.584,9.75 -16,13.417 -16,20 0,4.75 2.25,9 5.083,12.917" /></g><g
           transform="translate(37.625,242.125)"
           id="g36"><path
             id="path38"
             style="fill:#fccc04;fill-opacity:1;fill-rule:nonzero;stroke:none"
             d="m 0,0 c 0,12.75 3.877,21.344 11.958,27.458 9.584,7.25 26.167,4.917 45.417,-0.708 C 76.625,21.125 81.25,-4.375 60.75,-12 40.25,-19.625 18.625,-22.708 7.708,-22.708 2.188,-22.708 0,-3.375 0,0" /></g><g
           transform="translate(64.625,157.75)"
           id="g40"><path
             id="path42"
             style="fill:#fccc04;fill-opacity:1;fill-rule:nonzero;stroke:none"
             d="m 0,0 c 7.977,-11.046 15.375,-13.5 26.208,-6.5 10.834,7 22.667,16.25 27.667,23.25 5,7 -3.917,17.167 -14.667,16.75 C 28.458,33.083 8.125,28.083 1.125,24.167 -5.875,20.25 -5.958,8.25 0,0" /></g><g
           transform="translate(123.625,63.625)"
           id="g44"><path
             id="path46"
             style="fill:#fccc04;fill-opacity:1;fill-rule:nonzero;stroke:none"
             d="m 0,0 c 17.323,-14.208 23.875,-12.875 29.25,-5.125 5.375,7.75 20.625,33.375 23.25,46.75 1.75,8.188 -1.625,16.5 -12.75,20.25 C 28.625,65.625 16.208,59.458 0,45 -15.997,30.73 -14.25,11.688 0,0" /></g><g
           transform="translate(231.625,98.125)"
           id="g48"><path
             id="path50"
             style="fill:#fccc04;fill-opacity:1;fill-rule:nonzero;stroke:none"
             d="m 0,0 c 11.001,0 14.625,-9.625 17.125,-23.125 2.5,-13.5 5.375,-27.25 -1.75,-34 -5,-4.309 -23.417,-8.667 -35.083,1.333 -6.227,5.338 -4.75,14.25 1.166,35.834 C -13.504,-1.581 -6.625,0 0,0" /></g><g
           transform="translate(310.125,101.125)"
           id="g52"><path
             id="path54"
             style="fill:#fccc04;fill-opacity:1;fill-rule:nonzero;stroke:none"
             d="m 0,0 c 9.128,2.871 14.375,0.5 17.125,-8 2.75,-8.5 7.5,-21.208 4.25,-29.625 -3.25,-8.417 -25.167,-9.583 -29.25,-2.833 -4.083,6.75 -2.917,18.166 -2.917,26.333 0,8.167 1.917,11.333 10.792,14.125" /></g><g
           transform="translate(353.5625,139.125)"
           id="g56"><path
             id="path58"
             style="fill:#fccc04;fill-opacity:1;fill-rule:nonzero;stroke:none"
             d="m 0,0 c 8.143,8.402 17.437,7.375 29.937,0.5 12.501,-6.875 36.251,-19.875 37.501,-27.5 1.25,-7.625 -10.875,-34.125 -35.25,-34.125 -17.667,0 -27.251,16.25 -37.5,36.667 C -7.767,-19.57 -7.875,-8.125 0,0" /></g><g
           transform="translate(440.1667,219.1667)"
           id="g60"><path
             id="path62"
             style="fill:#fccc04;fill-opacity:1;fill-rule:nonzero;stroke:none"
             d="m 0,0 c 0,-16.5 -6.292,-24.792 -14.542,-28.542 -8.25,-3.75 -34.125,-3.75 -44.625,1.25 -10.5,5 -14,13.375 -14,20.875 0,7.5 3.125,12.875 18.25,18.875 15.125,6 40.75,18.875 48.084,9.875 C -1.25,15.481 0,6.792 0,0" /></g><g
           transform="translate(362.6667,270.75)"
           id="g64"><path
             id="path66"
             style="fill:#fccc04;fill-opacity:1;fill-rule:nonzero;stroke:none"
             d="m 0,0 c 6.5,-7.5 11.417,-10.167 23.5,-4.167 12.083,6 21,10.084 24,18.584 3,8.5 -6.25,16.833 -9.667,19.916 C 34.417,37.417 26,46.667 16.75,39.25 7.5,31.833 -2.583,17.833 -4.5,11.417 -5.583,8 -2.817,3.25 0,0" /></g></g></g><g
       id="g68"><g
         clip-path="url(#clipPath74)"
         id="g70"><g
           transform="translate(162.4465,254.3943)"
           id="g76"><path
             id="path78"
             style="fill:#f5ae19;fill-opacity:1;fill-rule:nonzero;stroke:none"
             d="m 0,0 c -1.086,-0.064 -2.14,-0.216 -3.155,-0.443 -2.165,-7.306 -3.348,-15.013 -3.348,-22.993 0,-0.432 0.026,-0.858 0.033,-1.288 2.394,-0.937 5.121,-1.4 7.994,-1.231 8.844,0.519 15.673,6.75 15.252,13.917 C 16.355,-4.87 8.844,0.519 0,0" /></g><g
           transform="translate(271.5,246)"
           id="g80"><path
             id="path82"
             style="fill:#f5ae19;fill-opacity:1;fill-rule:nonzero;stroke:none"
             d="m 0,0 c -9.083,0 -16.25,-6.667 -17,-13.417 -0.75,-6.75 3.5,-10.583 5.5,-13.833 2,-3.25 7.417,-8.667 14,-7 6.583,1.667 14.417,6.583 14.417,16.25 0,9.667 -5.5,18 -16.917,18" /></g></g></g><g
       id="g84"><g
         clip-path="url(#clipPath90)"
         id="g86"><g
           transform="translate(188.7917,268.375)"
           id="g92"><path
             id="path94"
             style="fill:#000000;fill-opacity:1;fill-rule:nonzero;stroke:none"
             d="m 0,0 c -8.477,0.928 -12.208,-7.357 -13.583,-10.014 -1.375,-2.657 -0.896,-4.361 0.479,-4.736 1.447,-0.395 2.062,0.687 3.625,4.062 1.562,3.376 5.104,7.438 8.937,6.688 2.901,-0.568 4.563,-2.917 3.5,-12.042 C 2.333,-20.958 6.854,-21.937 7.417,-16 7.979,-10.063 7.997,-0.875 0,0" /></g><g
           transform="translate(252.625,263.0833)"
           id="g96"><path
             id="path98"
             style="fill:#000000;fill-opacity:1;fill-rule:nonzero;stroke:none"
             d="m 0,0 c -8.188,0 -13.292,-9.396 -13.292,-14.333 0,-2.438 1.727,-3.063 2.417,-3.063 2.437,0 4,0.813 3.542,3.938 -0.41,2.793 3.271,8.812 8.208,8.812 4.937,0 4.5,-10.062 4.5,-12.062 0,-3.271 2.896,-3.542 3.083,0.021 C 8.646,-13.125 8.188,0 0,0" /></g><g
           transform="translate(224.8125,235.5)"
           id="g100"><path
             id="path102"
             style="fill:#000000;fill-opacity:1;fill-rule:nonzero;stroke:none"
             d="m 0,0 c -2.563,0 -3.313,-2.958 -2.938,-6.875 0.37,-3.857 -3.083,-8.542 -9.666,-8.542 -6.583,0 -10.167,5.959 -10.167,9.084 0,3.125 2.072,5.73 1.115,6.989 -0.594,0.781 -4.281,-1.937 -4.281,-6.968 0,-6.876 4,-13.813 13.999,-13.813 10.001,0 14.334,8.375 14.751,13.688 C 3.177,-1.791 1.75,0 0,0" /></g></g></g></g></svg>